<svg width="24" height="24" viewBox="0 0 24 24" fill="none" xmlns="http://www.w3.org/2000/svg">
<g id="ICON/calendar">
<path id="Vector" d="M5.76923 3V4.38462H5.07692C3.94154 4.38462 3 5.32615 3 6.47538V18.9092C3 20.0585 3.94154 21 5.07692 21H18.9231C20.0585 21 21 20.0585 21 18.9092V6.47538C21 5.34 20.0585 4.38462 18.9231 4.38462H18.2308V3H16.8462V4.38462H7.15385V3H5.76923ZM5.07692 5.76923H5.76923V7.15385H7.15385V5.76923H16.8462V7.15385H18.2308V5.76923H18.9231C19.3108 5.76923 19.6154 6.07385 19.6154 6.47538V8.53846H4.38462V6.47538C4.38462 6.07385 4.68923 5.76923 5.07692 5.76923ZM4.38462 9.92308H19.6154V18.9092C19.6154 19.3108 19.3108 19.6154 18.9231 19.6154H5.07692C4.68923 19.6154 4.38462 19.3108 4.38462 18.9092V9.92308ZM15.8354 11.3354L10.6154 16.5554L8.16462 14.1046L7.19538 15.0738L10.6292 18.5077L16.8323 12.3046L15.8492 11.3354H15.8354Z" fill="#E7E8EE"/>
</g>
</svg>
