<svg width="45" height="28" viewBox="0 0 45 28" fill="none" xmlns="http://www.w3.org/2000/svg">
<g id="logo_itis" clip-path="url(#clip0_734_2340)">
<path id="Vector" d="M45 14.8388H41.2076L45 18.6911V24.8955L41.9492 28H19.7678L14.5589 22.6987V28H2.00276C0.899245 28 0 27.088 0 25.9651V6.27104C0 2.80932 2.75991 0 6.16594 0H42.9928C44.1008 0 45 0.914249 45 2.04153V14.8388Z" fill="#FF8C00"/>
<path id="Vector_2" d="M14.3103 8.23934H21.4821V10.6293H19.0907V16.4676L20.8293 18.2007L19.1396 19.8894L17.0946 17.8456C17.0702 17.8256 17.0458 17.8057 17.0258 17.7768C16.8238 17.566 16.7016 17.2775 16.7016 16.9602V10.627H14.3103V8.23713V8.23934ZM12.2409 8.23934H9.84961V19.6431H12.2409V8.23934ZM35.1484 11.4925H31.8112C31.4937 11.4925 31.1895 11.619 30.9652 11.8431L29.7773 13.0347C29.3643 13.4497 29.3133 14.1021 29.6574 14.577C29.7107 14.6502 29.7707 14.7145 29.8351 14.7722L32.2597 17.1977H29.4265V19.5876H32.7637C33.0812 19.5876 33.3854 19.4611 33.6097 19.237L34.7976 18.0453C35.2638 17.5793 35.2616 16.8226 34.7976 16.3566L32.3219 13.8824H35.1484V11.4925ZM25.0768 10.1544H27.4682V8.1062H25.0768V10.1544ZM27.4682 14.3817C27.4682 14.0644 27.346 13.7781 27.144 13.5651C27.124 13.5384 27.0996 13.5163 27.0751 13.4963L25.0302 11.4525L23.3405 13.1412L25.079 14.8743V19.5831H27.4704V14.3795L27.4682 14.3817Z" fill="black"/>
</g>
<defs>
<clipPath id="clip0_734_2340">
<rect width="45" height="28" fill="white"/>
</clipPath>
</defs>
</svg>
