<svg width="69" height="19" viewBox="0 0 69 19" fill="none" xmlns="http://www.w3.org/2000/svg">
<g id="logo" clip-path="url(#clip0_451_4258)">
<path id="Vector" d="M8.8 12.2C8.08 12.2 7.5 11.67 7.5 10.95C7.5 10.78 7.53 10.62 7.59 10.48L7.62 10.41L8.5 8.36H1.27L0.55 10.04L0.46 10.25C0.16 10.98 0 11.77 0 12.6C0 14.88 1.24 16.86 3.06 17.94C3.92 18.45 4.89 18.76 5.96 18.81H6.99L17.25 18.82L20.13 12.2H8.79H8.8Z" fill="#E1251B"/>
<path id="Vector_2" d="M22.5698 6.58L25.3598 0.18H12.6498C12.5198 0.18 11.7098 0.18 11.5798 0.19C8.1498 0.34 4.9698 2.1 3.0598 4.78C2.7098 5.27 2.2698 5.98 2.0498 6.58H22.5698Z" fill="#E1251B"/>
<path id="Vector_3" d="M44.3404 16.59V15.89H44.9704C45.1604 15.89 45.3204 16.05 45.3204 16.24C45.3204 16.43 45.1704 16.59 44.9704 16.59H44.3404ZM45.9404 17.76L45.3704 16.92C45.6604 16.77 45.7404 16.46 45.7404 16.46C45.7404 16.46 45.7604 16.36 45.7604 16.23C45.7604 16.1 45.7404 16 45.7404 16C45.7404 16 45.6104 15.46 45.0004 15.46H44.3404H43.9004V17.75H44.3404V17H44.9104L45.4204 17.76H45.9304H45.9404Z" fill="#E1251B"/>
<path id="Vector_4" d="M44.7703 14.77C43.7503 14.77 42.9303 15.6 42.9303 16.61C42.9303 17.62 43.7603 18.45 44.7703 18.45C45.7803 18.45 46.6103 17.62 46.6103 16.61C46.6103 15.6 45.7803 14.77 44.7703 14.77ZM44.7703 18.82C43.5503 18.82 42.5703 17.83 42.5703 16.62C42.5703 15.41 43.5603 14.42 44.7703 14.42C45.9803 14.42 46.9703 15.41 46.9703 16.62C46.9703 17.83 45.9803 18.82 44.7703 18.82Z" fill="#E1251B"/>
<path id="Vector_5" d="M68.0305 5.71C68.0305 5.07 67.9105 4.47 67.7105 3.9C66.9505 1.74 64.9005 0.18 62.4805 0.18H49.5305L46.7405 6.58H60.3105C60.4205 6.58 60.5205 6.6 60.6105 6.64C60.9405 6.77 61.1805 7.09 61.1805 7.47C61.1805 7.96 60.7805 8.37 60.2805 8.37H46.7305L51.2605 18.81H58.3105L56.4005 14.4H61.1205C61.4405 14.4 61.7505 14.37 61.7505 14.37C63.3005 14.21 64.6705 13.43 65.6105 12.28L65.8505 11.98C67.7605 9.45 67.9905 6.65 68.0105 6.07V5.71" fill="#E1251B"/>
<path id="Vector_6" d="M31.2797 6.58L25.9797 18.82H33.5397L38.8297 6.58H45.3797L48.1697 0.18H26.7197L23.9297 6.58H31.2797Z" fill="#E1251B"/>
</g>
<defs>
<clipPath id="clip0_451_4258">
<rect width="68.03" height="18.64" fill="white" transform="translate(0 0.18)"/>
</clipPath>
</defs>
</svg>
