<svg width="32" height="32" viewBox="0 0 32 32" fill="none" xmlns="http://www.w3.org/2000/svg">
<g id="ICON/noti_32">
<path id="Vector" d="M8.81712 10.7315H11.2856C14.0475 10.7315 16.8397 9.47518 18.2661 7.37791M18.2661 21.6738C16.8397 19.5866 14.0475 18.3202 11.2856 18.3202H8.81712M5.9035 18.3303V26M26.3292 14.5309H29M26.4506 9.04965L28.8786 7.93516M28.8786 21.1165L26.4506 20.002M8.81712 18.3303H5.27626C4.02179 18.3303 3 17.307 3 16.0507V13.0213C3 11.7649 4.02179 10.7416 5.27626 10.7416H8.81712V18.3404V18.3303ZM21.807 21.2786V7.77305C21.807 6.79027 21.0179 6 20.0366 6C19.0553 6 18.2661 6.79027 18.2661 7.77305V21.2786C18.2661 22.2614 19.0553 23.0517 20.0366 23.0517C21.0179 23.0517 21.807 22.2614 21.807 21.2786Z" stroke="white" stroke-linecap="round" stroke-linejoin="round"/>
</g>
</svg>
