<svg width="24" height="24" viewBox="0 0 24 24" fill="none" xmlns="http://www.w3.org/2000/svg">
<g id="ICON/user">
<path id="Vector" d="M15.5796 6.63557C15.6725 4.59516 13.9341 3 11.9053 3C9.87652 3 8.11487 4.61065 8.23102 6.63557C8.25425 7.04211 8.63756 9.05929 8.63756 9.05929C8.95504 10.8093 10.1011 12.2922 11.9014 12.2922C13.7018 12.2922 14.8285 10.8326 15.1653 9.05929C15.1653 9.05929 15.5564 7.04211 15.5719 6.63557H15.5796Z" stroke="white" stroke-miterlimit="10"/>
<path id="Vector_2" d="M20.8101 20.81H3L3.42589 17.6352C3.60399 16.5976 4.54483 15.9471 5.57471 15.7342L11.905 14.6152L18.2315 15.7264C19.2768 15.9626 20.2022 16.586 20.3803 17.6313L20.8101 20.81Z" stroke="white" stroke-miterlimit="10" stroke-linejoin="round"/>
</g>
</svg>
